<svg xmlns="http://www.w3.org/2000/svg" width="888" height="200" viewBox="0 0 888 200">
  <path fill="none" d="M311.721 154.013H584v33.703H311.721z"/>
  <path fill="#88C0D0" d="M310.049 145.094h1.38l22.451 31.697h.092v-31.697h.92v32.848h-1.38l-22.45-31.697h-.092v31.697h-.92v-32.848zm39.284 8.648c6.901 0 10.627 5.936 10.627 12.375 0 6.486-3.726 12.375-10.673 12.375-6.901 0-10.627-5.889-10.627-12.375 0-6.439 3.727-12.375 10.673-12.375zm0 23.83c6.303 0 9.707-5.475 9.707-11.455 0-5.889-3.404-11.455-9.707-11.455-6.395 0-9.753 5.566-9.753 11.455.001 5.981 3.358 11.455 9.753 11.455zm15.363.369h-.92v-23.646h.92v5.842h.092c.874-3.496 3.634-6.578 9.293-6.395v.92c-6.487-.322-9.385 4.738-9.385 9.891v13.388zm29.396-32.847h.92v32.848h-.92v-6.625H394c-1.196 4.141-4.646 7.176-9.477 7.176-6.257 0-10.075-5.197-10.075-12.328 0-6.625 3.542-12.422 10.075-12.422 5.015 0 8.373 2.898 9.477 7.178h.092v-15.827zm-9.569 9.568c-6.487 0-9.155 6.027-9.155 11.502 0 6.072 3.037 11.408 9.155 11.408 6.073 0 9.569-5.289 9.569-11.408 0-7.314-3.819-11.502-9.569-11.502z"/>
  <path fill="#2E3440" d="M434.295 177.941h-2.668v-4.51h-.092c-1.242 3.084-5.015 5.199-8.465 5.199-7.223 0-10.673-5.842-10.673-12.559s3.451-12.561 10.673-12.561c3.542 0 6.993 1.795 8.235 5.199h.092v-13.617h2.898v32.849zm-11.225-1.748c6.165 0 8.327-5.199 8.327-10.121 0-4.924-2.163-10.121-8.327-10.121-5.521 0-7.775 5.197-7.775 10.121 0 4.922 2.255 10.121 7.775 10.121zm16.788-31.099h2.898v4.646h-2.898v-4.646zm0 9.109h2.898v23.738h-2.898v-23.738zm8.464 0h2.668v5.566h.092c1.473-3.818 4.693-6.074 8.972-5.889v2.898c-5.245-.277-8.833 3.588-8.833 8.51v12.652h-2.898v-23.737zm30.408 7.451c-.783-3.541-2.945-5.703-6.717-5.703-5.567 0-8.328 5.061-8.328 10.121s2.761 10.121 8.328 10.121c3.588 0 6.532-2.807 6.9-6.764h2.898c-.782 5.705-4.509 9.201-9.799 9.201-7.27 0-11.227-5.75-11.227-12.559s3.957-12.561 11.227-12.561c5.061 0 8.971 2.715 9.615 8.143h-2.897zm28.383 4.418c0 6.809-3.957 12.559-11.227 12.559-7.269 0-11.225-5.75-11.225-12.559s3.956-12.561 11.225-12.561c7.27.001 11.227 5.753 11.227 12.561zm-19.552 0c0 5.061 2.76 10.121 8.326 10.121s8.328-5.061 8.328-10.121-2.762-10.121-8.328-10.121-8.326 5.061-8.326 10.121zm23.919-20.978h2.898v32.848h-2.898v-32.848zm29.719 20.978c0 6.809-3.957 12.559-11.227 12.559-7.268 0-11.225-5.75-11.225-12.559s3.957-12.561 11.225-12.561c7.27.001 11.227 5.753 11.227 12.561zm-19.553 0c0 5.061 2.76 10.121 8.326 10.121 5.568 0 8.328-5.061 8.328-10.121s-2.76-10.121-8.328-10.121c-5.566 0-8.326 5.061-8.326 10.121zm23.875-11.869h2.668v5.566h.092c1.473-3.818 4.691-6.074 8.971-5.889v2.898c-5.244-.277-8.834 3.588-8.834 8.51v12.652h-2.896v-23.737zm28.704 6.945c-.137-3.588-2.898-5.197-6.209-5.197-2.578 0-5.613 1.012-5.613 4.094 0 2.576 2.943 3.496 4.922 4.002l3.865.875c3.313.506 6.762 2.438 6.762 6.578 0 5.152-5.105 7.131-9.521 7.131-5.521 0-9.295-2.576-9.754-8.373h2.898c.23 3.91 3.129 5.936 6.992 5.936 2.715 0 6.486-1.197 6.486-4.51 0-2.76-2.576-3.68-5.197-4.324l-3.727-.828c-3.773-1.012-6.625-2.301-6.625-6.348 0-4.832 4.738-6.672 8.926-6.672 4.738 0 8.51 2.484 8.693 7.637h-2.898z"/>
  <g fill="#2E3440">
    <path d="M466.561 127.097l-43.393-55.545v-15.41l48.092 62.17h25.844V30.767h-43.465l-9.397-9.399H506.5v105.729z"/>
    <path d="M421.44 21.368l43.394 55.541v15.41l-48.092-62.168h-25.843v87.545h43.463l9.4 9.401H381.5V21.368z"/>
  </g>
</svg>
